<?xml version="1.0" encoding="UTF-8" standalone="no"?>
<!-- Created with Inkscape (http://www.inkscape.org/) -->

<svg
   width="210mm"
   height="297mm"
   viewBox="0 0 210 297"
   version="1.1"
   id="svg5"
   inkscape:version="1.1 (c68e22c387, 2021-05-23)"
   sodipodi:docname="logo teikning.svg"
   xmlns:inkscape="http://www.inkscape.org/namespaces/inkscape"
   xmlns:sodipodi="http://sodipodi.sourceforge.net/DTD/sodipodi-0.dtd"
   xmlns="http://www.w3.org/2000/svg"
   xmlns:svg="http://www.w3.org/2000/svg">
  <sodipodi:namedview
     id="namedview7"
     pagecolor="#ffffff"
     bordercolor="#666666"
     borderopacity="1.0"
     inkscape:pageshadow="2"
     inkscape:pageopacity="0.0"
     inkscape:pagecheckerboard="0"
     inkscape:document-units="mm"
     showgrid="true"
     showborder="true"
     inkscape:zoom="1.0985948"
     inkscape:cx="297.19784"
     inkscape:cy="714.09404"
     inkscape:window-width="1920"
     inkscape:window-height="1057"
     inkscape:window-x="-8"
     inkscape:window-y="-8"
     inkscape:window-maximized="1"
     inkscape:current-layer="g2896">
    <inkscape:grid
       type="xygrid"
       id="grid9"
       units="mm"
       spacingx="1"
       spacingy="1"
       enabled="false" />
  </sodipodi:namedview>
  <defs
     id="defs2" />
  <g
     inkscape:label="Lag 1"
     inkscape:groupmode="layer"
     id="layer1">
    <rect
       style="fill:#ffffff;stroke-width:0.264583"
       id="rect495"
       width="30.000002"
       height="20"
       x="-219.99998"
       y="-20" />
    <path
       style="fill:none;stroke:#000000;stroke-width:0.264583px;stroke-linecap:butt;stroke-linejoin:miter;stroke-opacity:1;opacity:0"
       d="m -25,-45 c 0.218273,-0.626528 0.34431,-1.293271 0.654817,-1.879587 0.277918,-0.52478 3.712591,-0.681191 4.427752,-0.681191 2.492044,0 4.964549,0.340595 7.493119,0.340595 0.287983,0 1.185164,-0.17722 1.362384,0 0.08028,0.08028 -0.107704,0.304695 0,0.340596 0.614482,0.204827 1.693662,0 2.384177,0 0.567658,0 1.301583,-0.401397 1.70298,0 0.08028,0.08028 -0.08028,0.260318 0,0.340598 0.06198,0.06198 9.154321,0.334626 11.580275,0.681191 2.049682,0.292812 6.413822,-0.58683 8.174312,0 0.63077,0.210256 0.927669,0.340595 1.70298,0.340595 0.38381,0 2.749407,-0.315957 3.065368,0 0.181681,0.181682 -0.922822,7.888986 -0.340596,10.217891 0.362953,1.451808 0.852038,4.59641 0.340596,6.130734 -0.135853,0.407559 -0.625282,1.13361 -0.340596,1.702983 0.561308,1.122617 0.710674,8.426469 0.340596,9.536697 -0.202962,0.608886 -0.50413,1.171792 -0.681191,1.702981 -0.42322,1.269655 -0.01111,3.713229 0.340595,4.768348 0.274746,0.824238 0,2.173364 0,3.065367 0,0.567661 -0.401397,1.301585 0,1.702982 0.08028,0.08028 0.260318,-0.08028 0.340596,0 0.169949,0.169949 0,1.436292 0,1.702982 0,3.746559 0,7.4931188 0,11.2396785 0,1.4110789 0.541139,4.9084035 0,5.4495415 -0.216043,0.216044 -1.078807,-0.141789 -1.362385,0 -0.507966,0.253983 -0.842822,0.762007 -1.362385,1.021789 -0.590253,0.295125 -1.776364,0.188643 -2.384173,0.340596 -0.155766,0.03894 -0.19699,0.268792 -0.340598,0.340596 -0.203092,0.101547 -0.520634,-0.160558 -0.681191,0 -0.08028,0.08028 0.08028,0.260317 0,0.340597 -0.16056,0.160558 -0.465783,-0.0718 -0.681194,0 -0.608888,0.202962 -1.171794,0.504129 -1.702982,0.681192 -0.379013,0.126338 -2.764595,0.03982 -3.065368,0.340597 -0.08028,0.08028 0.101547,0.289823 0,0.340596 -0.340595,0.170298 -0.681191,-0.08515 -1.021789,0 -2.173451,0.543363 -4.030194,0.83725 -6.130732,1.362385 -0.500107,0.125027 -1.230206,-0.0788 -1.702982,0 -0.571027,0.09517 -1.185196,0.0817 -1.702983,0.340596 -0.101544,0.05077 0.101547,0.289824 0,0.340597 -0.406183,0.203092 -0.931561,-0.143608 -1.362384,0 -2.264887,0.754962 -5.905699,1.021789 -8.514908,1.021789 -0.681194,0 -1.561902,-0.481676 -2.043579,0 -0.08028,0.08028 0.08028,0.260317 0,0.340596 -0.397361,0.397363 -1.986811,-0.397362 -2.384173,0 -0.421413,0.421412 -0.107966,0.340597 -1.021789,0.340597 -1.801596,0 -4.369073,0.399275 -5.449541,-0.681193 -0.242731,-0.242731 -0.340598,-6.101923 -0.340598,-6.811927 0,-7.1052985 -0.737116,-12.378369 1.021789,-19.41399 0.532664,-2.13065 -0.08012,-5.689895 -0.681191,-7.49312 -0.635513,-1.906539 0.340595,-4.25524 0.340595,-6.130734 0,-2.307277 0.305851,-5.178438 -0.681193,-7.152523 -0.427792,-0.855583 0,-3.148288 0,-4.087156 0,-0.140245 -0.09016,-0.93163 0,-1.021789 0.08028,-0.08028 0.260318,0.08028 0.340598,0 0.293349,-0.293349 0,-2.29847 0,-2.724769 0,-1.373537 0.443976,-5.923976 0,-6.811928 -0.16877,-0.337537 -0.784386,-2.280981 -0.340598,-2.72477 0.08028,-0.08028 0.289824,0.101545 0.340598,0 0.233672,-0.467344 0.356579,-3.243058 0.366972,-3.801604"
       id="path4748" />
    <g
       id="g2896"
       transform="translate(39.015749,12.523574)">
      <g
         id="g3373"
         inkscape:export-filename="C:\Users\Ísak Skúli\g3373.png"
         inkscape:export-xdpi="96"
         inkscape:export-ydpi="96">
        <g
           id="g2900"
           transform="translate(-39.015749,-12.523574)"
           style="fill:#ffffff;fill-opacity:1">
          <path
             style="fill:#ffffff;fill-opacity:1;stroke:#000000;stroke-width:0.263581px;stroke-linecap:butt;stroke-linejoin:miter;stroke-opacity:1"
             d="m 114.02858,207.13133 c 44.83969,0 44.83969,0 44.83969,0 v 54.77964 l -44.83969,9.95993"
             id="path471" />
          <path
             style="fill:#ffffff;fill-opacity:1;stroke:#000000;stroke-width:0.262966px;stroke-linecap:butt;stroke-linejoin:miter;stroke-opacity:1"
             d="m 79.131482,207.13148 h 34.737028 v 64.69384 l -34.737028,-9.9529 z"
             id="path699"
             sodipodi:nodetypes="ccccc" />
        </g>
        <g
           id="g2928"
           transform="translate(170.60938,6.8893194)">
          <g
             id="g2868"
             transform="translate(2.000241)">
            <g
               id="g2573"
               transform="translate(4.596916,-15.41363)">
              <g
                 id="g1996"
                 transform="matrix(1.0440911,0,0,0.97432525,-225.03213,1.1965645)">
                <ellipse
                   style="fill:#1a1a1a;stroke-width:0.310388"
                   id="path58"
                   cx="125.70931"
                   cy="220.59274"
                   rx="4.7888541"
                   ry="7.1844592" />
                <path
                   sodipodi:type="star"
                   style="fill:#ffff00;fill-rule:evenodd"
                   id="path186"
                   inkscape:flatsided="false"
                   sodipodi:sides="5"
                   sodipodi:cx="-615.32617"
                   sodipodi:cy="884.37042"
                   sodipodi:r1="27.155479"
                   sodipodi:r2="13.57774"
                   sodipodi:arg1="-1.4758446"
                   sodipodi:arg2="-0.84752609"
                   inkscape:rounded="0"
                   inkscape:randomized="0"
                   transform="matrix(0.15498433,-0.01898657,0.019024,0.16774893,204.28658,60.971401)"
                   inkscape:transform-center-x="0.035621555"
                   inkscape:transform-center-y="-0.41377996"
                   d="m -612.75158,857.33727 6.4117,16.85466 17.51936,4.27337 -14.04842,11.30626 1.34957,17.98245 -15.0941,-9.86701 -16.68528,6.8404 4.71975,-17.40441 -11.66164,-13.75485 18.01106,-0.88951 z" />
              </g>
              <g
                 id="g2000"
                 transform="matrix(1.0440911,0,0,0.96732008,-225.70011,4.2753602)">
                <ellipse
                   style="fill:#1a1a1a;stroke-width:0.31151"
                   id="path64"
                   cx="126.34908"
                   cy="254.34668"
                   rx="4.7888541"
                   ry="7.2364879" />
                <path
                   sodipodi:type="star"
                   style="fill:#ffff00;fill-rule:evenodd"
                   id="path186-0"
                   inkscape:flatsided="false"
                   sodipodi:sides="5"
                   sodipodi:cx="-615.32617"
                   sodipodi:cy="884.37042"
                   sodipodi:r1="27.155479"
                   sodipodi:r2="13.57774"
                   sodipodi:arg1="-1.4758446"
                   sodipodi:arg2="-0.84752609"
                   inkscape:rounded="0"
                   inkscape:randomized="0"
                   transform="matrix(0.15498433,-0.01898657,0.019024,0.16774893,204.92635,94.725336)"
                   inkscape:transform-center-x="0.035621555"
                   inkscape:transform-center-y="-0.41377996"
                   d="m -612.75158,857.33727 6.4117,16.85466 17.51936,4.27337 -14.04842,11.30626 1.34957,17.98245 -15.0941,-9.86701 -16.68528,6.8404 4.71975,-17.40441 -11.66164,-13.75485 18.01106,-0.88951 z" />
              </g>
            </g>
            <g
               id="g1988"
               transform="matrix(1.0440911,0,0,0.9661852,-219.62218,-12.439787)">
              <ellipse
                 style="fill:#1a1a1a;stroke-width:0.311962"
                 id="path62"
                 cx="138.76791"
                 cy="227.30962"
                 rx="4.803688"
                 ry="7.2351608"
                 transform="matrix(0.99691195,0.0785275,0,1,0,0)" />
              <path
                 sodipodi:type="star"
                 style="fill:#ffff00;fill-rule:evenodd"
                 id="path186-4"
                 inkscape:flatsided="false"
                 sodipodi:sides="5"
                 sodipodi:cx="-615.32617"
                 sodipodi:cy="884.37042"
                 sodipodi:r1="27.155479"
                 sodipodi:r2="13.57774"
                 sodipodi:arg1="-1.4758446"
                 sodipodi:arg2="-0.84752609"
                 inkscape:rounded="0"
                 inkscape:randomized="0"
                 transform="matrix(0.15498433,-0.01898657,0.019024,0.16774893,216.91665,78.585369)"
                 inkscape:transform-center-x="0.035621555"
                 inkscape:transform-center-y="-0.41377996"
                 d="m -612.75158,857.33727 6.4117,16.85466 17.51936,4.27337 -14.04842,11.30626 1.34957,17.98245 -15.0941,-9.86701 -16.68528,6.8404 4.71975,-17.40441 -11.66164,-13.75485 18.01106,-0.88951 z" />
            </g>
            <g
               id="g2743"
               transform="translate(5.539273,-2.6492179)">
              <g
                 id="g2049"
                 transform="translate(-218.25911,-17.120402)">
                <g
                   id="g1992"
                   transform="matrix(1.0440911,0,0,0.96828064,-4.7200131,6.7731512)">
                  <ellipse
                     style="fill:#1a1a1a;stroke-width:0.311356"
                     id="path60"
                     cx="149.65802"
                     cy="220.53333"
                     rx="4.7888541"
                     ry="7.2293091" />
                  <path
                     sodipodi:type="star"
                     style="fill:#ffff00;fill-rule:evenodd"
                     id="path186-9"
                     inkscape:flatsided="false"
                     sodipodi:sides="5"
                     sodipodi:cx="-615.32617"
                     sodipodi:cy="884.37042"
                     sodipodi:r1="27.155479"
                     sodipodi:r2="13.57774"
                     sodipodi:arg1="-1.4758446"
                     sodipodi:arg2="-0.84752609"
                     inkscape:rounded="0"
                     inkscape:randomized="0"
                     transform="matrix(0.15498433,-0.01898657,0.019024,0.16774893,228.23531,60.911984)"
                     inkscape:transform-center-x="0.035621555"
                     inkscape:transform-center-y="-0.41377996"
                     d="m -612.75158,857.33727 6.4117,16.85466 17.51936,4.27337 -14.04842,11.30626 1.34957,17.98245 -15.0941,-9.86701 -16.68528,6.8404 4.71975,-17.40441 -11.66164,-13.75485 18.01106,-0.88951 z" />
                </g>
              </g>
              <g
                 id="g2054"
                 transform="translate(-218.25911,-16.950069)">
                <g
                   id="g1984"
                   transform="matrix(1.0440911,0,0,0.96732001,-3.229424,4.8748695)">
                  <ellipse
                     style="fill:#1a1a1a;stroke-width:0.31151"
                     id="path66"
                     cx="148.23038"
                     cy="254.54095"
                     rx="4.7888541"
                     ry="7.2364883" />
                  <path
                     sodipodi:type="star"
                     style="fill:#ffff00;fill-rule:evenodd"
                     id="path186-46"
                     inkscape:flatsided="false"
                     sodipodi:sides="5"
                     sodipodi:cx="-615.32617"
                     sodipodi:cy="884.37042"
                     sodipodi:r1="27.155479"
                     sodipodi:r2="13.57774"
                     sodipodi:arg1="-1.4758446"
                     sodipodi:arg2="-0.84752609"
                     inkscape:rounded="0"
                     inkscape:randomized="0"
                     transform="matrix(0.15498433,-0.01898657,0.019024,0.16774893,226.80765,94.919616)"
                     inkscape:transform-center-x="0.035621555"
                     inkscape:transform-center-y="-0.41377996"
                     d="m -612.75158,857.33727 6.4117,16.85466 17.51936,4.27337 -14.04842,11.30626 1.34957,17.98245 -15.0941,-9.86701 -16.68528,6.8404 4.71975,-17.40441 -11.66164,-13.75485 18.01106,-0.88951 z" />
                </g>
              </g>
            </g>
          </g>
          <g
             id="g2008"
             transform="matrix(1.0440403,0,0,0.97434562,-215.40989,-14.391849)">
            <ellipse
               style="fill:#1a1a1a;fill-rule:evenodd;stroke-width:0.253434"
               id="path32"
               cx="87.377869"
               cy="220.5927"
               rx="4.7890873"
               ry="7.184309" />
            <path
               sodipodi:type="star"
               style="fill:#ffff00;fill-rule:evenodd"
               id="path186-5"
               inkscape:flatsided="false"
               sodipodi:sides="5"
               sodipodi:cx="-615.32617"
               sodipodi:cy="884.37042"
               sodipodi:r1="27.155479"
               sodipodi:r2="13.57774"
               sodipodi:arg1="-1.4758446"
               sodipodi:arg2="-0.84752609"
               inkscape:rounded="0"
               inkscape:randomized="0"
               transform="matrix(0.15498433,-0.01898657,0.019024,0.16774893,165.95514,60.971356)"
               inkscape:transform-center-x="0.035621555"
               inkscape:transform-center-y="-0.41377996"
               d="m -612.75158,857.33727 6.4117,16.85466 17.51936,4.27337 -14.04842,11.30626 1.34957,17.98245 -15.0941,-9.86701 -16.68528,6.8404 4.71975,-17.40441 -11.66164,-13.75485 18.01106,-0.88951 z" />
          </g>
          <g
             id="g2004"
             transform="matrix(1.0440403,0,0,0.97434562,-213.40972,-12.703788)">
            <ellipse
               style="fill:#1a1a1a;stroke-width:0.253434"
               id="path56"
               cx="106.53426"
               cy="254.11945"
               rx="4.7890873"
               ry="7.184309" />
            <path
               sodipodi:type="star"
               style="fill:#ffff00;fill-rule:evenodd"
               id="path186-09"
               inkscape:flatsided="false"
               sodipodi:sides="5"
               sodipodi:cx="-615.32617"
               sodipodi:cy="884.37042"
               sodipodi:r1="27.155479"
               sodipodi:r2="13.57774"
               sodipodi:arg1="-1.4758446"
               sodipodi:arg2="-0.84752609"
               inkscape:rounded="0"
               inkscape:randomized="0"
               transform="matrix(0.15498433,-0.01898657,0.019024,0.16774893,185.11153,94.498106)"
               inkscape:transform-center-x="0.035621555"
               inkscape:transform-center-y="-0.41377996"
               d="m -612.75158,857.33727 6.4117,16.85466 17.51936,4.27337 -14.04842,11.30626 1.34957,17.98245 -15.0941,-9.86701 -16.68528,6.8404 4.71975,-17.40441 -11.66164,-13.75485 18.01106,-0.88951 z" />
          </g>
        </g>
      </g>
    </g>
  </g>
</svg>
